<?xml version="1.0" encoding="UTF-8"?>
<svg width="28px" height="29px" viewBox="0 0 28 29" version="1.1" xmlns="http://www.w3.org/2000/svg" xmlns:xlink="http://www.w3.org/1999/xlink">
    <title>Combined Shape</title>
    <g id="Page-1" stroke="none" stroke-width="1" fill="none" fill-rule="evenodd">
        <path d="M11.8205875,2.11345113 C12.4337887,0.976231158 13.8325373,0.493560063 15.025973,1.03657974 C15.5705598,1.28436967 16.007069,1.72087887 16.2548589,2.26546567 L16.3359639,2.43087056 C17.1040495,3.88879217 18.8861674,4.51130316 20.4053151,3.82008273 L20.6137871,3.72743152 C21.8145174,3.25042862 23.196276,3.77977935 23.7614544,4.96288222 C24.0193558,5.50275396 24.0731586,6.11772212 23.912923,6.6941761 L23.8687328,6.87301689 C23.5199866,8.48356557 24.4850257,10.1059599 26.0930683,10.5529437 L26.3059189,10.6138596 C27.5362452,11.0178813 28.2575445,12.3138566 27.9294429,13.5856637 C27.7799839,14.1650052 27.4259053,14.6706819 26.9326203,15.0092738 L26.778458,15.1220284 C25.4805856,16.1325616 25.1791197,17.99248 26.1223405,19.3666317 L26.2536211,19.5620879 C26.9269791,20.6609954 26.6446599,22.1096335 25.5796902,22.8702288 C25.0928044,23.2179598 24.4965217,23.3777333 23.9010008,23.3200323 C22.178243,23.1531114 20.6463557,24.4143664 20.4794348,26.1371242 L20.4564054,26.357319 C20.2721657,27.6391116 19.1211315,28.5744965 17.8116718,28.4722264 C17.2151784,28.4256397 16.655699,28.1647502 16.236593,27.7377551 L16.0933607,27.6006281 C14.8726617,26.5029099 12.992635,26.5304728 11.809366,27.6918391 L11.6350395,27.8596593 C10.6697542,28.7136108 9.19409991,28.687134 8.26012977,27.7704196 C7.83313472,27.3513135 7.57224519,26.7918341 7.52565847,26.1953408 L7.50686533,26.0184292 C7.286624,24.3825258 5.82328408,23.1848174 4.15721575,23.314939 L3.93636719,23.3304959 C2.64205509,23.3716361 1.52100576,22.4005166 1.39433684,21.0931915 C1.33663582,20.4976705 1.49640928,19.9013878 1.84414031,19.4145021 L1.95044115,19.2558208 C2.82441952,17.8623317 2.47157532,16.0114728 1.11525008,15.042793 L0.925036716,14.9040249 C-0.0835613504,14.1016916 -0.31373145,12.6438582 0.426873807,11.5648914 C0.765465757,11.0716063 1.27114243,10.7175277 1.850484,10.5680688 L2.02745975,10.5169182 C3.59660893,10.013667 4.51912409,8.36672141 4.10220209,6.75062376 L4.04853157,6.53583181 C3.78326142,5.26832715 4.54495928,3.99567594 5.81042737,3.64391679 C6.38688135,3.48368124 7.00184951,3.53748398 7.54172125,3.79538537 L7.7101715,3.86995958 C9.23569318,4.4930764 11.001017,3.82442423 11.7204437,2.31842931 Z M14.3367016,2.26801136 C13.8211858,2.09770775 13.2494151,2.33982691 13.0194333,2.84527549 L12.8842952,3.11786293 C11.7455163,5.23586303 9.13124829,6.10625824 6.93825137,5.05864469 C6.70347825,4.94649155 6.43604808,4.92309444 6.1853665,4.9927758 C5.61212484,5.15211842 5.27659338,5.74599532 5.435936,6.31923697 C5.43966757,6.33282498 5.44215529,6.34188366 5.44420958,6.34943759 L5.50635539,6.60880061 C5.99919736,8.96532562 4.55557031,11.3160462 2.20020669,11.9236845 C1.94826939,11.9886795 1.72836662,12.1426571 1.58112371,12.3571711 C1.24441859,12.8477073 1.36912328,13.5183188 1.85965944,13.8550239 C1.8712522,13.8630344 1.87898071,13.8683746 1.88540996,13.8728408 L2.10983674,14.0395491 C3.99345421,15.5297136 4.39462723,18.2522185 2.98341644,20.2281666 C2.83219923,20.4398978 2.76271881,20.6992022 2.78781116,20.9581754 C2.84519064,21.5503778 3.37178078,21.9839374 3.96398316,21.9265579 L4.26137587,21.9074906 C6.66768109,21.8313423 8.73200571,23.6612357 8.92140807,26.0863314 C8.94166716,26.3457274 9.05511975,26.5890273 9.24080637,26.7712832 C9.66542196,27.1880538 10.3475002,27.1816941 10.7688641,26.7524421 L10.824053,26.6972962 C12.6110969,24.9432691 15.4817022,24.9700345 17.2357293,26.7570785 C17.4179852,26.9427651 17.6612851,27.0562177 17.9206812,27.0764768 C18.5138505,27.1228039 19.0322648,26.6795007 19.0785919,26.0863314 L19.0859605,26.0021082 C19.3274487,23.5097557 21.5436644,21.6850698 24.0360168,21.9265579 C24.29499,21.9516503 24.5542945,21.8821699 24.7660257,21.7309527 C25.2501983,21.3851594 25.3623768,20.7123391 25.0165836,20.2281666 L24.8446051,19.969204 C23.58425,17.9246722 24.1384222,15.2291452 26.1403406,13.8550239 C26.3548546,13.707781 26.5088322,13.4878783 26.5738271,13.235941 C26.7224532,12.6598278 26.3759065,12.0723106 25.7997933,11.9236845 L25.5138141,11.8398877 C23.2265826,11.0884388 21.9126124,8.66286087 22.564064,6.31923697 C22.6337454,6.06855539 22.6103483,5.80112522 22.4981951,5.5663521 C22.2417309,5.02948882 21.5986119,4.80218048 21.0617486,5.05864469 C21.049015,5.06467911 21.040526,5.06870205 21.0334435,5.07203687 L20.783011,5.1805937 C18.5492316,6.07108296 15.9871068,5.05742527 14.9805667,2.84527549 C14.8728107,2.60845194 14.6829867,2.41862792 14.4461632,2.31087192 Z M14,8.6969697 C17.4810675,8.6969697 20.3030303,11.5189325 20.3030303,15 C20.3030303,18.4810675 17.4810675,21.3030303 14,21.3030303 C10.5189325,21.3030303 7.6969697,18.4810675 7.6969697,15 C7.6969697,11.5189325 10.5189325,8.6969697 14,8.6969697 Z M14,10.0969697 C11.2921311,10.0969697 9.0969697,12.2921311 9.0969697,15 C9.0969697,17.7078689 11.2921311,19.9030303 14,19.9030303 C16.7078689,19.9030303 18.9030303,17.7078689 18.9030303,15 C18.9030303,12.2921311 16.7078689,10.0969697 14,10.0969697 Z" id="Combined-Shape" fill="#D6C193" fill-rule="nonzero"></path>
    </g>
</svg>