<?xml version="1.0" encoding="UTF-8"?>
<svg width="27.4002176px" height="27.4px" viewBox="0 0 27.4002176 27.4" version="1.1" xmlns="http://www.w3.org/2000/svg" xmlns:xlink="http://www.w3.org/1999/xlink">
    <title>menu-home</title>
    <g id="Page-1" stroke="none" stroke-width="1" fill="none" fill-rule="evenodd">
        <g id="menu-home" transform="translate(0.000000, -0.000000)" fill="#D6C193" fill-rule="nonzero">
            <path d="M15.3269147,0.487522174 L26.2215266,7.7617589 C27.4982469,8.61421382 27.7866305,10.2910137 26.8458783,11.4785757 C26.3342983,12.1243705 25.5396995,12.5107969 24.6918202,12.5383317 L24.6915902,23.3580269 C24.6915902,26.6313126 23.6093758,27.4 20.7415902,27.4 L17.4940647,27.4 C17.1074654,27.4 16.7940647,27.0865993 16.7940647,26.7 L16.7915902,18.6792645 C16.7915902,17.9710619 16.1465325,17.3740806 15.3249236,17.3740806 L12.0749236,17.3740806 C11.2533147,17.3740806 10.6082569,17.9710619 10.6082569,18.6792645 L10.608,26 L12.7297603,26 C13.1163596,26 13.4297603,26.3134007 13.4297603,26.7 C13.4297603,27.0865993 13.1163596,27.4 12.7297603,27.4 L6.65825691,27.4 L6.24139294,27.3940179 C3.68495545,27.3168698 2.70825691,26.4676483 2.70825691,23.3580269 L2.708,12.537 L2.63573311,12.5351609 C1.1764698,12.4532152 0,11.3207681 0,9.9070736 C0,9.05066392 0.442343935,8.25316689 1.17832484,7.7617589 L12.0729368,0.487522174 C13.0464849,-0.162507391 14.3533665,-0.162507391 15.3269147,0.487522174 Z M12.8503427,1.65184172 L1.95573078,8.92607845 C1.60223595,9.16210384 1.4,9.52671282 1.4,9.9070736 C1.4,10.5739589 2.01645437,11.1399105 2.8053138,11.1399105 L13.7,11.1399105 C14.0865993,11.1399105 14.4,11.4533111 14.4,11.8399105 C14.4,12.2265098 14.0865993,12.5399105 13.7,12.5399105 L4.108,12.539 L4.10825691,23.3580269 C4.10825691,25.6631264 4.45886183,25.9820095 6.46526574,25.999219 L9.208,25.999 L9.20825691,18.6792645 C9.20825691,17.1726021 10.5032985,15.9740806 12.0749236,15.9740806 L15.3249236,15.9740806 C16.8965486,15.9740806 18.1915902,17.1726021 18.1915902,18.6792645 L18.191,26 L20.7415902,26 C22.9187301,26 23.2915902,25.7351607 23.2915902,23.3580269 L23.2908104,12.5257912 C22.9715826,12.4607119 22.731384,12.1783619 22.731384,11.8399105 C22.731384,11.4533111 23.0447847,11.1399105 23.431384,11.1399105 L24.5945377,11.1399105 C25.0575639,11.1399105 25.4872389,10.9390346 25.7484835,10.6092514 C26.1755043,10.0702002 26.0480882,9.32934226 25.4441207,8.92607845 L14.5495088,1.65184172 C14.0465982,1.31605276 13.3532533,1.31605276 12.8503427,1.65184172 Z" id="Combined-Shape"></path>
        </g>
    </g>
</svg>